{"title":"Enrique Iglesias Ft. Pitbull - I'm A Freak [Music Video] 720p [S","uid":9688268,"size":65810680,"categoryP":"video","categoryS":"music_videos","magnet":"?xt=urn:btih:e34f502fe4e2409f3120039d83f16be540da4ea8&amp;dn=Enrique+Iglesias+Ft.+Pitbull+-+I%27m+A+Freak+%5BMusic+Video%5D+720p+%5BS&amp;tr=udp%3A%2F%2Ftracker.openbittorrent.com%3A80&amp;tr=udp%3A%2F%2Fopen.demonii.com%3A1337&amp;tr=udp%3A%2F%2Ftracker.coppersurfer.tk%3A6969&amp;tr=udp%3A%2F%2Fexodus.desync.com%3A6969","seeders":1,"leechers":0,"uploader":"Sbyky","files":1,"time":1393816335,"description":"\n\nGeneral\nComplete name                            : Enrique Iglesias Ft. Pitbull - I'm A Freak [Music Video] 720p [Sbyky].MP4\nFormat                                   : MPEG-4\nFormat profile                           : Base Media\nCodec ID                                 : isom\nFile size                                : 62.8 MiB\nDuration                                 : 3mn 52s\nOverall bit rate mode                    : Variable\nOverall bit rate                         : 2 260 Kbps\nEncoded date                             : UTC 2014-02-07 04:12:41\nTagged date                              : UTC 2014-02-07 04:12:41\n\nVideo\nID                                       : 1\nFormat                                   : AVC\nFormat/Info                              : Advanced Video Codec\nFormat profile                           : &lt;a class=&quot;__cf_email__&quot; href=&quot;/cdn-cgi/l/email-protection&quot; data-cfemail=&quot;763b171f18363a455847&quot;&gt;[email&amp;#160;protected]&lt;/a&gt;&lt;script cf-hash='f9e31' type=&quot;text/javascript&quot;&gt;\n/* &lt;![CDATA[ */!function(){try{var t=&quot;currentScript&quot;in document?document.currentScript:function(){for(var t=document.getElementsByTagName(&quot;script&quot;),e=t.length;e--;)if(t[e].getAttribute(&quot;cf-hash&quot;))return t[e]}();if(t&amp;&amp;t.previousSibling){var e,r,n,i,c=t.previousSibling,a=c.getAttribute(&quot;data-cfemail&quot;);if(a){for(e=&quot;&quot;,r=parseInt(a.substr(0,2),16),n=2;a.length-n;n+=2)i=parseInt(a.substr(n,2),16)^r,e+=String.fromCharCode(i);e=document.createTextNode(e),c.parentNode.replaceChild(e,c)}}}catch(u){}}();/* ]]&gt; */&lt;/script&gt;\nFormat settings, CABAC                   : Yes\nFormat settings, ReFrames                : 3 frames\nCodec ID                                 : avc1\nCodec ID/Info                            : Advanced Video Coding\nDuration                                 : 3mn 52s\nDuration_LastFrame                       : -41ms\nBit rate                                 : 2 131 Kbps\nWidth                                    : 1 280 pixels\nHeight                                   : 720 pixels\nDisplay aspect ratio                     : 16:9\nFrame rate mode                          : Constant\nFrame rate                               : 23.976 fps\nColor space                              : YUV\nChroma subsampling                       : 4:2:0\nBit depth                                : 8 bits\nScan type                                : Progressive\nBits/(Pixel*Frame)                       : 0.096\nStream size                              : 59.2 MiB (94%)\nEncoded date                             : UTC 2014-02-07 04:12:41\nTagged date                              : UTC 2014-02-07 04:12:41\n\nAudio\nID                                       : 2\nFormat                                   : AAC\nFormat/Info                              : Advanced Audio Codec\nFormat profile                           : LC\nCodec ID                                 : 40\nDuration                                 : 3mn 52s\nBit rate mode                            : Variable\nBit rate                                 : 126 Kbps\nChannel(s)                               : 2 channels\nChannel positions                        : Front: L R\nSampling rate                            : 44.1 KHz\nCompression mode                         : Lossy\nStream size                              : 3.49 MiB (6%)\nEncoded date                             : UTC 2014-02-07 04:12:12\nTagged date                              : UTC 2014-02-07 04:12:12\n\nShared By Sbyky\n","torrent":{"xt":"urn:btih:e34f502fe4e2409f3120039d83f16be540da4ea8","amp;dn":"Enrique+Iglesias+Ft.+Pitbull+-+I%27m+A+Freak+%5BMusic+Video%5D+720p+%5BS","amp;tr":["udp%3A%2F%2Ftracker.openbittorrent.com%3A80","udp%3A%2F%2Fopen.demonii.com%3A1337","udp%3A%2F%2Ftracker.coppersurfer.tk%3A6969","udp%3A%2F%2Fexodus.desync.com%3A6969"],"infoHash":"e34f502fe4e2409f3120039d83f16be540da4ea8","infoHashBuffer":{"type":"Buffer","data":[227,79,80,47,228,226,64,159,49,32,3,157,131,241,107,229,64,218,78,168]},"announce":[],"urlList":[]}}